# xmcd
#
# Track frame offsets:
# 150
# 11487
# 27663
# 40517
# 51632
# 68842
# 79492
# 91679
# 107430
# 125515
# 136017
# 147209
# 157401
# 169473
# 179154
# 190597
#
# Disc length: 2803 seconds
#
#
# Revision: 1
# Processed by: cddbd v1.5PL3 Copyright (c) Steve Scherf et al.
# Submitted via: FreeRIP 2.51 
#
DISCID=e20af110
DTITLE=John Lee Hooker - 60 Essential Blues Classics
DYEAR=1900
DGENRE=Blues
TTITLE0=Boom Boom
TTITLE1=Process
TTITLE2=Lost A Good Girl
TTITLE3=A New Leaf
TTITLE4=Blues Before Sunrise
TTITLE5=Let's Make It
TTITLE6=I Got A Letter
TTITLE7=Thelma
TTITLE8=House Rent Boogie
TTITLE9=Keep Your Hands To Yourself
TTITLE10=What Do You Say
TTITLE11=Big Legs, Tight Skirt
TTITLE12=Everybody Rockin'
TTITLE13=Onions
TTITLE14=Wheel And Deal
TTITLE15=Sadie Mae
EXTD=CD 4
EXTT0=
EXTT1=
EXTT2=
EXTT3=
EXTT4=
EXTT5=
EXTT6=
EXTT7=
EXTT8=
EXTT9=
EXTT10=
EXTT11=
EXTT12=
EXTT13=
EXTT14=
EXTT15=
PLAYORDER=
